<mxfile host="app.diagrams.net" modified="2023-05-02T22:32:16.761Z" agent="Mozilla/5.0 (Windows NT 10.0; Win64; x64) AppleWebKit/537.36 (KHTML, like Gecko) Chrome/112.0.0.0 Safari/537.36" etag="ec6vHywgkaw7o-5XFkJ1" version="21.2.4" type="device">
  <diagram name="Page-1" id="V-6rKa4Vt0WxLigp24uU">
    <mxGraphModel dx="2037" dy="792" grid="1" gridSize="10" guides="1" tooltips="1" connect="1" arrows="1" fold="1" page="1" pageScale="1" pageWidth="850" pageHeight="1100" math="0" shadow="0">
      <root>
        <mxCell id="0" />
        <mxCell id="1" parent="0" />
        <mxCell id="QdxveyhRp4n-uVB6Ryfr-1" value="" style="rounded=0;whiteSpace=wrap;html=1;" vertex="1" parent="1">
          <mxGeometry x="40" y="40" width="270" height="220" as="geometry" />
        </mxCell>
        <mxCell id="QdxveyhRp4n-uVB6Ryfr-2" value="&lt;b&gt;dependencies / artifacts:&lt;br&gt;&lt;br&gt;&lt;/b&gt;&lt;b style=&quot;border-color: var(--border-color);&quot;&gt;dotnet sdk:&lt;br&gt;&lt;span style=&quot;&quot;&gt;	&lt;/span&gt;&lt;span style=&quot;white-space: pre;&quot;&gt;	&lt;/span&gt;dotnet build / publish (msbuild)&lt;/b&gt;&lt;b&gt;&lt;br&gt;&lt;span style=&quot;&quot;&gt;	&lt;/span&gt;&lt;span style=&quot;white-space: pre;&quot;&gt;	&lt;/span&gt;dotnet test&lt;br&gt;any reporting dependencies (coverage etc)&lt;br&gt;&lt;/b&gt;&lt;b style=&quot;border-color: var(--border-color);&quot;&gt;&lt;b style=&quot;border-color: var(--border-color);&quot;&gt;CI secrets for auth&lt;br style=&quot;border-color: var(--border-color);&quot;&gt;&lt;/b&gt;source code&lt;br&gt;&lt;br style=&quot;border-color: var(--border-color);&quot;&gt;&lt;/b&gt;" style="text;html=1;strokeColor=none;fillColor=none;align=left;verticalAlign=middle;whiteSpace=wrap;rounded=0;" vertex="1" parent="1">
          <mxGeometry x="50" y="70" width="310" height="130" as="geometry" />
        </mxCell>
        <mxCell id="QdxveyhRp4n-uVB6Ryfr-3" value="&lt;b&gt;build&lt;/b&gt;" style="text;html=1;strokeColor=none;fillColor=none;align=center;verticalAlign=middle;whiteSpace=wrap;rounded=0;" vertex="1" parent="1">
          <mxGeometry x="140" y="40" width="60" height="30" as="geometry" />
        </mxCell>
        <mxCell id="QdxveyhRp4n-uVB6Ryfr-8" value="" style="edgeStyle=orthogonalEdgeStyle;rounded=0;orthogonalLoop=1;jettySize=auto;html=1;" edge="1" parent="1" source="QdxveyhRp4n-uVB6Ryfr-9" target="QdxveyhRp4n-uVB6Ryfr-5">
          <mxGeometry relative="1" as="geometry" />
        </mxCell>
        <mxCell id="QdxveyhRp4n-uVB6Ryfr-4" value="&lt;b&gt;code&lt;/b&gt;" style="rounded=1;whiteSpace=wrap;html=1;" vertex="1" parent="1">
          <mxGeometry x="60" y="210" width="60" height="30" as="geometry" />
        </mxCell>
        <mxCell id="QdxveyhRp4n-uVB6Ryfr-5" value="&lt;b&gt;app &lt;br&gt;binaries&lt;br&gt;&lt;/b&gt;" style="rounded=1;whiteSpace=wrap;html=1;" vertex="1" parent="1">
          <mxGeometry x="220" y="210" width="70" height="30" as="geometry" />
        </mxCell>
        <mxCell id="QdxveyhRp4n-uVB6Ryfr-10" value="" style="edgeStyle=orthogonalEdgeStyle;rounded=0;orthogonalLoop=1;jettySize=auto;html=1;" edge="1" parent="1" source="QdxveyhRp4n-uVB6Ryfr-4" target="QdxveyhRp4n-uVB6Ryfr-9">
          <mxGeometry relative="1" as="geometry">
            <mxPoint x="150" y="225" as="sourcePoint" />
            <mxPoint x="280" y="225" as="targetPoint" />
          </mxGeometry>
        </mxCell>
        <mxCell id="QdxveyhRp4n-uVB6Ryfr-9" value="dotnet publish" style="text;html=1;strokeColor=none;fillColor=none;align=center;verticalAlign=middle;whiteSpace=wrap;rounded=0;" vertex="1" parent="1">
          <mxGeometry x="140" y="210" width="60" height="30" as="geometry" />
        </mxCell>
        <mxCell id="QdxveyhRp4n-uVB6Ryfr-11" value="" style="rounded=0;whiteSpace=wrap;html=1;" vertex="1" parent="1">
          <mxGeometry x="380" y="40" width="180" height="220" as="geometry" />
        </mxCell>
        <mxCell id="QdxveyhRp4n-uVB6Ryfr-12" value="&lt;b&gt;dependencies / artifacts:&lt;br&gt;&lt;br&gt;&lt;/b&gt;&lt;b style=&quot;border-color: var(--border-color);&quot;&gt;dotnet runtime&lt;/b&gt;&lt;b&gt;&lt;br&gt;&lt;/b&gt;&lt;b style=&quot;border-color: var(--border-color);&quot;&gt;runtime certs&lt;br&gt;app binaries&lt;br style=&quot;border-color: var(--border-color);&quot;&gt;&lt;/b&gt;" style="text;html=1;strokeColor=none;fillColor=none;align=left;verticalAlign=middle;whiteSpace=wrap;rounded=0;" vertex="1" parent="1">
          <mxGeometry x="395" y="70" width="150" height="90" as="geometry" />
        </mxCell>
        <mxCell id="QdxveyhRp4n-uVB6Ryfr-13" value="&lt;b&gt;runtime&lt;/b&gt;" style="text;html=1;strokeColor=none;fillColor=none;align=center;verticalAlign=middle;whiteSpace=wrap;rounded=0;" vertex="1" parent="1">
          <mxGeometry x="440" y="40" width="60" height="30" as="geometry" />
        </mxCell>
        <mxCell id="QdxveyhRp4n-uVB6Ryfr-16" value="&lt;b&gt;app&lt;br&gt;binaries&lt;br&gt;&lt;/b&gt;" style="rounded=1;whiteSpace=wrap;html=1;" vertex="1" parent="1">
          <mxGeometry x="400" y="210" width="90" height="30" as="geometry" />
        </mxCell>
        <mxCell id="QdxveyhRp4n-uVB6Ryfr-21" value="" style="edgeStyle=orthogonalEdgeStyle;rounded=0;orthogonalLoop=1;jettySize=auto;html=1;entryX=0;entryY=0.5;entryDx=0;entryDy=0;" edge="1" parent="1" source="QdxveyhRp4n-uVB6Ryfr-5" target="QdxveyhRp4n-uVB6Ryfr-20">
          <mxGeometry relative="1" as="geometry">
            <mxPoint x="360" y="225" as="sourcePoint" />
            <mxPoint x="550" y="225" as="targetPoint" />
          </mxGeometry>
        </mxCell>
        <mxCell id="QdxveyhRp4n-uVB6Ryfr-20" value="&lt;b&gt;COPY&lt;/b&gt;" style="text;html=1;strokeColor=none;fillColor=none;align=center;verticalAlign=middle;whiteSpace=wrap;rounded=0;" vertex="1" parent="1">
          <mxGeometry x="330" y="210" width="40" height="30" as="geometry" />
        </mxCell>
        <mxCell id="QdxveyhRp4n-uVB6Ryfr-19" style="edgeStyle=orthogonalEdgeStyle;rounded=0;orthogonalLoop=1;jettySize=auto;html=1;exitX=1;exitY=0.5;exitDx=0;exitDy=0;entryX=0;entryY=0.5;entryDx=0;entryDy=0;" edge="1" parent="1" source="QdxveyhRp4n-uVB6Ryfr-20" target="QdxveyhRp4n-uVB6Ryfr-16">
          <mxGeometry relative="1" as="geometry">
            <mxPoint x="390" y="224.9999999999999" as="sourcePoint" />
            <mxPoint x="440" y="225" as="targetPoint" />
          </mxGeometry>
        </mxCell>
      </root>
    </mxGraphModel>
  </diagram>
</mxfile>
